<svg width="39" height="33" viewBox="0 0 39 33" fill="none" xmlns="http://www.w3.org/2000/svg">
<path d="M16.3044 31.2537C15.6857 31.0348 15.1376 30.6904 14.7068 30.25H5.12068C4.69695 30.25 4.29057 30.1051 3.99095 29.8473C3.69133 29.5894 3.523 29.2397 3.523 28.875V7.21875C3.523 7.12758 3.56508 7.04015 3.63999 6.97568C3.71489 6.91122 3.81649 6.875 3.92242 6.875H35.0772C35.1831 6.875 35.2847 6.91122 35.3596 6.97568C35.4345 7.04015 35.4766 7.12758 35.4766 7.21875V14.3275L38.672 15.4963V4.125C38.672 3.03098 38.167 1.98177 37.2681 1.20818C36.3693 0.434597 35.1501 0 33.8789 0L5.12068 0C3.84949 0 2.63036 0.434597 1.73149 1.20818C0.832617 1.98177 0.327637 3.03098 0.327637 4.125L0.327637 28.875C0.327637 29.969 0.832617 31.0182 1.73149 31.7918C2.63036 32.5654 3.84949 33 5.12068 33H21.0975L16.3044 31.2537ZM17.1033 2.0625C17.527 2.0625 17.9334 2.20737 18.233 2.46523C18.5326 2.72309 18.701 3.07283 18.701 3.4375C18.701 3.80217 18.5326 4.15191 18.233 4.40977C17.9334 4.66763 17.527 4.8125 17.1033 4.8125C16.6796 4.8125 16.2732 4.66763 15.9736 4.40977C15.6739 4.15191 15.5056 3.80217 15.5056 3.4375C15.5056 3.07283 15.6739 2.72309 15.9736 2.46523C16.2732 2.20737 16.6796 2.0625 17.1033 2.0625ZM11.5114 2.0625C11.9351 2.0625 12.3415 2.20737 12.6411 2.46523C12.9408 2.72309 13.1091 3.07283 13.1091 3.4375C13.1091 3.80217 12.9408 4.15191 12.6411 4.40977C12.3415 4.66763 11.9351 4.8125 11.5114 4.8125C11.0877 4.8125 10.6813 4.66763 10.3817 4.40977C10.082 4.15191 9.91372 3.80217 9.91372 3.4375C9.91372 3.07283 10.082 2.72309 10.3817 2.46523C10.6813 2.20737 11.0877 2.0625 11.5114 2.0625ZM5.91952 2.0625C6.34325 2.0625 6.74963 2.20737 7.04925 2.46523C7.34887 2.72309 7.5172 3.07283 7.5172 3.4375C7.5172 3.80217 7.34887 4.15191 7.04925 4.40977C6.74963 4.66763 6.34325 4.8125 5.91952 4.8125C5.49579 4.8125 5.08941 4.66763 4.78979 4.40977C4.49017 4.15191 4.32184 3.80217 4.32184 3.4375C4.32184 3.07283 4.49017 2.72309 4.78979 2.46523C5.08941 2.20737 5.49579 2.0625 5.91952 2.0625Z" fill="#FFAB00"/>
<path d="M38.6722 18.6587C38.672 18.3888 38.5794 18.125 38.4061 17.9C38.2328 17.6751 37.9864 17.499 37.6976 17.3937L28.1115 13.86C27.9144 13.7881 27.7025 13.7511 27.4885 13.7511C27.2744 13.7511 27.0625 13.7881 26.8654 13.86L17.2793 17.3937C16.9905 17.499 16.7441 17.6751 16.5708 17.9C16.3975 18.125 16.3049 18.3888 16.3047 18.6587V28.0912C16.3049 28.3611 16.3975 28.625 16.5708 28.85C16.7441 29.0749 16.9905 29.251 17.2793 29.3562L26.8654 32.89C27.0625 32.9618 27.2744 32.9989 27.4885 32.9989C27.7025 32.9989 27.9144 32.9618 28.1115 32.89L37.6976 29.3562C37.9864 29.251 38.2328 29.0749 38.4061 28.85C38.5794 28.625 38.672 28.3611 38.6722 28.0912V18.6587ZM27.4885 16.6237L33.0164 18.6587L27.4885 20.7075L21.9605 18.6587L27.4885 16.6237ZM19.5 20.7487L25.8908 23.1V29.535L19.5 27.1837V20.7487ZM29.0861 29.535V23.1L35.4769 20.7487V27.1837L29.0861 29.535Z" fill="#FFAB00"/>
</svg>
