<svg width="50" height="34" viewBox="0 0 50 34" fill="none" xmlns="http://www.w3.org/2000/svg">
<path d="M25.3418 4.25C30.691 4.25 35.3051 8.2025 36.3464 13.6638L36.9589 16.8512L40.0826 17.085C41.6174 17.1924 43.0562 17.901 44.1092 19.068C45.1623 20.2351 45.7516 21.774 45.7585 23.375C45.7585 26.8813 43.0022 29.75 39.6335 29.75H13.0918C8.57971 29.75 4.92513 25.9463 4.92513 21.25C4.92513 16.8937 8.04888 13.26 12.1935 12.8137L14.378 12.58L15.3989 10.5613C16.338 8.65906 17.7631 7.06339 19.5174 5.94987C21.2716 4.83636 23.287 4.24815 25.3418 4.25ZM25.3418 4.07441e-07C19.4414 4.07441e-07 14.3168 3.485 11.7647 8.585C8.76394 8.92252 5.98885 10.4023 3.97267 12.7401C1.95649 15.0778 0.841446 18.1086 0.841797 21.25C0.841797 28.2838 6.33388 34 13.0918 34H39.6335C45.2685 34 49.8418 29.24 49.8418 23.375C49.8418 17.765 45.6564 13.2175 40.348 12.835C39.6623 9.21765 37.7911 5.96032 35.0541 3.6194C32.3172 1.27847 28.8843 -0.000833515 25.3418 4.07441e-07Z" fill="#FFAB00"/>
</svg>
