<svg width="25" height="27" viewBox="0 0 25 27" fill="none" xmlns="http://www.w3.org/2000/svg">
<path d="M12.5 1.01999C5.8725 1.01999 0.5 6.60739 0.5 13.5C0.5 20.3926 5.8725 25.98 12.5 25.98C19.1275 25.98 24.5 20.3926 24.5 13.5C24.5 6.60739 19.1275 1.01999 12.5 1.01999ZM9.5625 18.6727H7.1325V10.5399H9.5625V18.6727ZM8.3325 9.54149C7.565 9.54149 7.06875 8.97599 7.06875 8.27659C7.06875 7.56289 7.58 7.01429 8.36375 7.01429C9.1475 7.01429 9.6275 7.56289 9.6425 8.27659C9.6425 8.97599 9.1475 9.54149 8.3325 9.54149ZM18.4375 18.6727H16.0075V14.1656C16.0075 13.1165 15.655 12.4041 14.7763 12.4041C14.105 12.4041 13.7063 12.8864 13.53 13.3505C13.465 13.5156 13.4488 13.7496 13.4488 13.9823V18.6714H11.0175V13.1334C11.0175 12.1181 10.9862 11.2692 10.9537 10.5386H13.065L13.1763 11.6683H13.225C13.545 11.1379 14.3288 10.3553 15.64 10.3553C17.2388 10.3553 18.4375 11.4694 18.4375 13.864V18.6727Z" fill="black"/>
</svg>
