<svg width="20" height="16" viewBox="0 0 20 16" fill="none" xmlns="http://www.w3.org/2000/svg">
<g clip-path="url(#clip0_167_9)">
<path d="M12.7361 0.0639798C13.2561 0.26398 13.5231 0.86898 13.3341 1.41698L8.54605 15.305C8.35605 15.853 7.78305 16.135 7.26405 15.936C6.74405 15.736 6.47705 15.131 6.66605 14.583L11.4541 0.69498C11.6441 0.14698 12.2171 -0.13502 12.7361 0.0639798ZM2.41405 8.25598L5.95005 11.99C6.34005 12.402 6.34005 13.07 5.95005 13.482C5.85989 13.5795 5.75054 13.6573 5.62887 13.7105C5.5072 13.7637 5.37585 13.7911 5.24305 13.7911C5.11026 13.7911 4.97891 13.7637 4.85724 13.7105C4.73557 13.6573 4.62622 13.5795 4.53605 13.482L0.293055 9.00298C0.105267 8.79974 0.000976562 8.53319 0.000976562 8.25648C0.000976562 7.97977 0.105267 7.71322 0.293055 7.50998L4.53605 3.02998C4.62622 2.93249 4.73557 2.8547 4.85724 2.8015C4.97891 2.74829 5.11026 2.72083 5.24305 2.72083C5.37585 2.72083 5.5072 2.74829 5.62887 2.8015C5.75054 2.8547 5.85989 2.93249 5.95005 3.02998C6.13813 3.23327 6.2426 3.50003 6.2426 3.77698C6.2426 4.05393 6.13813 4.32069 5.95005 4.52398L2.41405 8.25598ZM17.5861 8.25598L14.0501 4.52398C13.8623 4.32074 13.758 4.05419 13.758 3.77748C13.758 3.50077 13.8623 3.23422 14.0501 3.03098C14.1402 2.93349 14.2496 2.8557 14.3712 2.8025C14.4929 2.74929 14.6243 2.72183 14.7571 2.72183C14.8898 2.72183 15.0212 2.74929 15.1429 2.8025C15.2645 2.8557 15.3739 2.93349 15.4641 3.03098L19.7071 7.50998C20.0971 7.92198 20.0971 8.58998 19.7071 9.00298L15.4641 13.481C15.3739 13.5785 15.2645 13.6563 15.1429 13.7095C15.0212 13.7627 14.8898 13.7901 14.7571 13.7901C14.6243 13.7901 14.4929 13.7627 14.3712 13.7095C14.2496 13.6563 14.1402 13.5785 14.0501 13.481C13.8626 13.2778 13.7584 13.0115 13.7584 12.735C13.7584 12.4585 13.8626 12.1922 14.0501 11.989L17.5861 8.25598Z" fill="black"/>
</g>
<defs>
<clipPath id="clip0_167_9">
<rect width="20" height="16" fill="white"/>
</clipPath>
</defs>
</svg>
