<svg width="25" height="25" viewBox="0 0 25 25" fill="none" xmlns="http://www.w3.org/2000/svg">
<g clip-path="url(#clip0_51_43)">
<path d="M12.5 0C19.4107 0 25 5.58929 25 12.5C25 19.4107 19.4107 25 12.5 25C5.58929 25 0 19.4107 0 12.5C0 5.58929 5.58929 0 12.5 0ZM10.2143 19.0893C15.75 19.0893 18.7857 14.5 18.7857 10.5179V10.125C19.375 9.69643 19.8929 9.16071 20.2857 8.55357C19.75 8.78571 19.1607 8.94643 18.5536 9.03571C19.1786 8.66071 19.6607 8.07143 19.875 7.375C19.2857 7.71429 18.6429 7.96429 17.9643 8.10714C17.4107 7.51786 16.625 7.16071 15.7679 7.16071C14.1071 7.16071 12.75 8.51786 12.75 10.1786C12.75 10.4107 12.7679 10.6429 12.8393 10.8571C10.3393 10.7321 8.10714 9.53571 6.625 7.71429C6.375 8.16071 6.21429 8.67857 6.21429 9.23214C6.21429 10.2679 6.75 11.1964 7.55357 11.7321C7.05357 11.7321 6.58929 11.5893 6.19643 11.3571V11.3929C6.19643 12.8571 7.23214 14.0714 8.60714 14.3571C8.35714 14.4286 8.08929 14.4643 7.82143 14.4643C7.625 14.4643 7.44643 14.4464 7.25 14.4107C7.625 15.6071 8.75 16.4821 10.0536 16.5C9.01786 17.3036 7.71429 17.7857 6.30357 17.7857C6.05357 17.7857 5.82143 17.7857 5.58929 17.75C6.91071 18.6071 8.5 19.1071 10.1964 19.1071" fill="black"/>
</g>
<defs>
<clipPath id="clip0_51_43">
<rect width="25" height="25" fill="white"/>
</clipPath>
</defs>
</svg>
