<svg width="44" height="42" viewBox="0 0 44 42" fill="none" xmlns="http://www.w3.org/2000/svg">
<path d="M22.3418 31.8699V40M26.8365 12.622L28.6364 11.8455M28.6364 7.17886L26.8365 6.40041M31.8032 3.87805L31.0563 2M31.8032 15.1463L31.0563 17.0224M36.2804 3.87805L37.0272 2M37.0253 17.0244L36.2804 15.1463M39.4472 7.17886L41.249 6.40041M39.4472 11.8455L41.249 12.624M41.8418 23.7398V27.8049C41.8418 28.883 41.4309 29.917 40.6995 30.6793C39.9681 31.4416 38.9761 31.8699 37.9418 31.8699H6.7418C5.70745 31.8699 4.71547 31.4416 3.98408 30.6793C3.25269 29.917 2.8418 28.883 2.8418 27.8049V7.47968C2.8418 6.40156 3.25269 5.3676 3.98408 4.60526C4.71547 3.84291 5.70745 3.41463 6.7418 3.41463H20.3918M14.5418 40H30.1418" stroke="#FFAB00" stroke-width="4" stroke-linecap="round" stroke-linejoin="round"/>
</svg>
